# xmcd CD database file
#
# Track frame offsets:
#	150
#	14587
#	30732
#	48293
#	66681
#	83137
#	99387
#	107429
#	122180
#	146196
#	162122
#	180066
#	186011
#	201768
#
# Disc length: 2800 seconds
#
# Revision: 2
# Processed by: cddbd v1.5.2PL0 Copyright (c) Steve Scherf et al.
# Submitted via: CDex 1.51
#
DISCID=ba0aee0e
DTITLE=Various Artist - Version
DYEAR=2007
DGENRE=
TTITLE0=mark ronson - God Put A Smile Upon Your Face-Feat. The Daptone Horns
TTITLE1=Mark Ronson - Oh My God-Feat. Lily Allen
TTITLE2=Mark Ronson - Stop Me-Feat. Daniel Merriweather
TTITLE3=Mark Ronson - Toxic-Feat. Tiggers
TTITLE4=Mark Ronson - Valerie-Feat. Amy Winehouse
TTITLE5=Mark Ronson - Apply Some Pressure-Feat. Paul Smith
TTITLE6=Mark Ronson - Inversion
TTITLE7=Mark Ronson - Pretty Green-Feat. Santo Gold
TTITLE8=Mark Ronson - Just-Feat. Phantom Planet
TTITLE9=Mark Ronson - Amy-Feat. Kenna
TTITLE10=Mark Ronson - The Only One I Know-Feat. Robbie Williams
TTITLE11=Mark Ronson - Diversion
TTITLE12=Mark Ronson - L.s.f.-Feat. Kasabian
TTITLE13=Mark Ronson - Outversion
EXTD=YEAR: 2007
EXTT0=
EXTT1=
EXTT2=
EXTT3=
EXTT4=
EXTT5=
EXTT6=
EXTT7=
EXTT8=
EXTT9=
EXTT10=
EXTT11=
EXTT12=
EXTT13=
PLAYORDER=
